<?xml version="1.0" encoding="UTF-8" standalone="no"?>
<!-- Created with Inkscape (http://www.inkscape.org/) -->

<svg
   xmlns:dc="http://purl.org/dc/elements/1.1/"
   xmlns:cc="http://creativecommons.org/ns#"
   xmlns:rdf="http://www.w3.org/1999/02/22-rdf-syntax-ns#"
   xmlns:svg="http://www.w3.org/2000/svg"
   xmlns="http://www.w3.org/2000/svg"
   xmlns:xlink="http://www.w3.org/1999/xlink"
   xmlns:sodipodi="http://sodipodi.sourceforge.net/DTD/sodipodi-0.dtd"
   xmlns:inkscape="http://www.inkscape.org/namespaces/inkscape"
   width="19.501757"
   height="33.693413"
   id="svg2"
   version="1.1"
   inkscape:version="0.48.5 r10040"
   sodipodi:docname="pfeed_logo.svg">
  <defs
     id="defs4">
    <pattern
       inkscape:collect="always"
       xlink:href="#Strips1_3"
       id="pattern5215"
       patternTransform="matrix(7.2576598,5.7945004,-3.7757548,4.7291642,47.957225,-57.130179)" />
    <pattern
       inkscape:stockid="Stripes 1:3"
       id="Strips1_3"
       patternTransform="translate(0,0) scale(10,10)"
       height="1"
       width="4"
       patternUnits="userSpaceOnUse"
       inkscape:collect="always">
      <rect
         id="rect4498"
         height="2"
         width="1"
         y="-0.5"
         x="0"
         style="fill:black;stroke:none" />
    </pattern>
  </defs>
  <sodipodi:namedview
     id="base"
     pagecolor="#ffffff"
     bordercolor="#666666"
     borderopacity="1.0"
     inkscape:pageopacity="0.0"
     inkscape:pageshadow="2"
     inkscape:zoom="11.2"
     inkscape:cx="-33.19871"
     inkscape:cy="13.32263"
     inkscape:document-units="px"
     inkscape:current-layer="layer1"
     showgrid="false"
     inkscape:window-width="1920"
     inkscape:window-height="1000"
     inkscape:window-x="1916"
     inkscape:window-y="-4"
     inkscape:window-maximized="1"
     fit-margin-top="0"
     fit-margin-left="0"
     fit-margin-right="0"
     fit-margin-bottom="0" />
  <metadata
     id="metadata7">
    <rdf:RDF>
      <cc:Work
         rdf:about="">
        <dc:format>image/svg+xml</dc:format>
        <dc:type
           rdf:resource="http://purl.org/dc/dcmitype/StillImage" />
        <dc:title></dc:title>
      </cc:Work>
    </rdf:RDF>
  </metadata>
  <g
     inkscape:label="Layer 1"
     inkscape:groupmode="layer"
     id="layer1">
    <g
       style="font-size:40px;font-style:normal;font-weight:normal;line-height:125%;letter-spacing:0px;word-spacing:0px;fill:#000000;fill-opacity:1;stroke:#000000;stroke-opacity:1;font-family:Sans"
       id="text2985">
      <path
         d="m 1.3619841,32.473422 c 0.00417,0.204998 0.065832,0.374995 0.1849985,0.509993 0.1191645,0.134999 0.2708288,0.204998 0.4549933,0.209998 l 6.9999099,0 c 0.2208218,-0.0033 0.3891525,-0.05667 0.5049926,-0.159998 0.1158222,-0.103332 0.174155,-0.236664 0.1749986,-0.399995 l 0,-12.679837 c -0.032508,-0.229983 0.082491,-0.369981 0.344996,-0.419995 0.262487,-0.04999 0.867479,-0.06999 1.814976,-0.06 1.978295,-0.07582 3.651604,-0.844141 5.019935,-2.30497 1.368298,-1.460798 2.081622,-3.159107 2.139973,-5.094934 C 18.940011,9.5841105 18.405698,7.6967289 17.398814,6.4115343 16.391897,5.1263933 15.282776,4.26122 14.071449,3.8160119 12.860095,3.3708626 11.916898,3.1634585 11.241857,3.193799 l -9.3198801,0 C 1.741144,3.1971629 1.6028123,3.2604956 1.5069814,3.3837972 1.4111486,3.5071584 1.3628162,3.6704893 1.3619841,3.8737903 l 0,28.5996317 z M 9.681877,11.073698 c -8.3e-6,-0.06331 0.00999,-0.126644 0.03,-0.189999 0.01999,-0.06331 0.04999,-0.106642 0.089998,-0.129997 0.073323,-0.03331 0.1666555,-0.04664 0.2799965,-0.04 0.262486,0.005 0.467483,0.105021 0.614991,0.299996 0.147488,0.195019 0.222487,0.455016 0.224998,0.77999 l 0,1.639979 c 0.0025,0.405015 -0.06251,0.72501 -0.194997,0.959988 -0.132509,0.235015 -0.347506,0.355013 -0.644992,0.359995 -0.1391752,-0.0083 -0.2408408,-0.06165 -0.3049971,-0.159998 -0.064175,-0.09831 -0.095841,-0.191646 -0.094998,-0.279996 l 0,-3.239958 z"
         style="font-variant:normal;font-weight:bold;font-stretch:normal;fill:#000000;stroke:#000000;font-family:Poplar Std;-inkscape-font-specification:Poplar Std Bold"
         id="path2993" />
    </g>
    <g
       style="font-size:40.92167282px;font-style:normal;font-variant:normal;font-weight:bold;font-stretch:normal;line-height:125%;letter-spacing:0px;word-spacing:0px;fill:#ffffff;fill-opacity:1;stroke:#000000;stroke-width:1.02304173;stroke-opacity:1;font-family:Sans;-inkscape-font-specification:Sans Bold"
       id="text2989">
      <path
         d="m 0.51152087,30.670406 c 0.005968,0.147487 0.0554143,0.271955 0.14834007,0.373405 0.0929238,0.101451 0.1935212,0.154307 0.30179253,0.15857 l 7.12027943,0 c 0.1653809,-8.52e-4 0.2949642,-0.0503 0.3887502,-0.148339 0.093768,-0.09804 0.14151,-0.23956 0.1432247,-0.424557 l 0,-9.943838 c 0.00425,-0.129574 0.04688,-0.248927 0.1278789,-0.358061 0.080981,-0.109112 0.1747581,-0.167083 0.2813325,-0.173914 l 3.0690858,0 c 0.145769,-0.0034 0.263417,-0.04773 0.352944,-0.132995 0.0895,-0.08524 0.135538,-0.190953 0.13811,-0.317138 l 0,-7.406727 c -0.006,-0.106547 -0.05543,-0.200324 -0.14834,-0.281333 -0.09294,-0.08097 -0.193535,-0.123597 -0.301793,-0.127879 l -3.1100068,0 C 8.8807377,11.885062 8.7767296,11.849256 8.7110946,11.780182 8.6454415,11.711147 8.613046,11.62419 8.6139078,11.51931 l 0,-2.4552688 C 8.6173087,8.919987 8.6616399,8.8091589 8.7469015,8.7315565 8.8321449,8.6539992 8.9378578,8.6147832 9.0640404,8.6139086 l 6.6292256,0 c 0.14747,-0.00424 0.271939,-0.057096 0.373405,-0.1585692 0.101434,-0.1014279 0.154291,-0.2258964 0.15857,-0.3734057 l 0,-7.12027944 C 16.222667,0.83551049 16.17663,0.72979743 16.087132,0.64451477 15.9976,0.55929323 15.879952,0.51496224 15.734187,0.51152166 l -14.7316124,0 C 0.85679121,0.51752006 0.73914273,0.57719657 0.64962882,0.69055136 0.560113,0.80396718 0.51407706,0.93525583 0.51152087,1.0844177 l 0,29.5859883 z"
         style="font-family:Poplar Std;-inkscape-font-specification:Poplar Std Bold"
         id="path2990" />
    </g>
  </g>
</svg>
